<svg xmlns="http://www.w3.org/2000/svg" viewBox="0 0 950 350" width="950" height="350">
	<style>
		tspan { white-space:pre }
		.shp0 { fill: #000000 } 
		.shp1 { fill: #92e503 } 
	</style>
	<g id="Top">
		<g id="traX">
			<path id="Layer copy" class="shp0" d="M803.2 92L833.3 130.4L863.4 92L868 92L835.5 133.4L867.1 173.7L862.5 173.7L833.3 136.4L804.1 173.7L799.3 173.7L830.9 133.4L798.4 92L803.2 92Z" />
			<path id="Layer_1_ copy" fill-rule="evenodd" class="shp0" d="M752.83 173.47C750.57 172.57 748.46 171.21 746.65 169.55C744.92 167.89 743.49 165.94 742.51 163.75C741.53 161.49 741 159 741 156.52C741 154.11 741.6 151.7 742.81 149.59C744.09 147.4 745.82 145.59 747.93 144.16C750.34 142.51 752.98 141.3 755.77 140.62C759.01 139.72 762.4 139.34 765.71 139.34C769.1 139.34 772.49 139.64 775.88 140.17C779.05 140.62 782.13 141.45 785.15 142.58L785.15 136.18C785.15 130.23 783.42 125.4 780.03 121.86C776.64 118.32 772.04 116.51 766.31 116.51C763.15 116.59 759.99 117.19 756.97 118.4C753.43 119.75 750.12 121.64 747.1 123.82L745.29 120.96C752.98 115.76 760.06 113.12 766.54 113.12C773.47 113.12 778.97 115.16 783.04 119.3C787.03 123.45 789.07 129.1 789.07 136.33L789.07 167.59C789.07 169.25 789.74 170.08 791.1 170.08L791.1 173.77C790.87 173.85 790.65 173.85 790.5 173.92L789.97 173.92C788.69 173.92 787.56 173.39 786.73 172.49C785.83 171.51 785.37 170.31 785.37 169.02L785.37 163.75C782.59 167.37 778.9 170.23 774.68 172.04C770.23 173.92 765.41 174.98 760.51 174.9C757.88 174.9 755.24 174.45 752.83 173.47ZM777.31 167.29C779.42 166.09 781.38 164.5 782.96 162.62C784.32 161.04 785.15 159.08 785.15 156.97L785.15 145.67C779.05 143.33 772.57 142.2 766.09 142.2C763.15 142.2 760.29 142.51 757.5 143.26C755.09 143.86 752.83 144.84 750.79 146.12C749.06 147.25 747.55 148.76 746.42 150.49C745.37 152.22 744.84 154.26 744.84 156.29C744.84 158.33 745.22 160.36 746.12 162.24C746.95 164.05 748.08 165.71 749.59 167.07C751.1 168.5 752.83 169.55 754.71 170.31C756.6 171.21 758.78 171.59 760.96 171.59C763.83 171.59 766.77 171.21 769.55 170.46C772.27 169.78 774.9 168.72 777.31 167.29Z" />
			<path id="Layer_5_ copy" class="shp0" d="M732.92 113.26L731.33 113.26C730.72 113.26 729.97 113.33 729.21 113.41C725.19 113.94 721.32 115.61 718.13 118.19C714.57 120.92 711.76 124.48 709.79 128.58L709.79 113.33L706 113.33L706 173.4L709.94 173.4L709.94 135.55C711.31 130.32 714.34 125.62 718.51 122.21C722.69 118.94 727.77 117.12 733 116.97L732.92 113.26Z" />
			<path id="Layer_3_ copy" class="shp0" d="M691.64 167.3C691.32 167.54 691.01 167.77 690.7 167.93C690.07 168.32 689.29 168.63 688.59 168.94C687.57 169.33 686.56 169.65 685.54 169.88C684.37 170.12 683.2 170.27 681.95 170.27C679.99 170.27 678.04 169.65 676.47 168.47C674.83 167.22 673.9 165.27 673.9 163.24L673.9 115.17L688.51 115.17L688.51 111.58L673.9 111.58L673.9 90.24L669.83 90.24L669.83 111.66L661 111.66L661 115.17L669.75 115.17L669.75 163.86C669.6 166.83 670.85 169.65 673.11 171.44C675.38 173.24 678.27 174.18 681.16 174.1C682.73 174.1 684.29 173.94 685.78 173.63C687.03 173.4 688.28 173.01 689.45 172.54C690.31 172.23 691.17 171.83 692.03 171.37L693.2 170.74L691.64 167.3Z" />
		</g>
		<g id="batterX">
			<path id="Layer" fill-rule="evenodd" class="shp0" d="M90.3 175.9C84 175.9 77.9 174.2 72.6 170.9C67.3 167.8 62.9 163.4 59.6 158.2L59.6 174.4L54.7 174.4L54.7 63.2L59.9 63.2L59.9 113.2C63.5 107.7 68.2 103 73.5 99.3C78.8 95.7 85.1 93.9 91.6 94C97 93.9 102.3 95.2 107 97.7C111.4 100 115.3 103.3 118.4 107.2C121.5 111.2 124 115.6 125.6 120.4C127.3 125.2 128.1 130.2 128.1 135.3C128.1 140.6 127.1 145.8 125.2 150.7C123.3 155.5 120.6 159.9 117.1 163.7C113.7 167.4 109.6 170.5 105 172.7C100.4 174.8 95.4 176 90.3 175.9ZM103 167.9C107 165.9 110.6 163.1 113.6 159.7C116.6 156.3 118.9 152.4 120.5 148.2C122.2 144 123 139.5 123 135C123 130.4 122.2 125.8 120.6 121.4C119.1 117.2 116.9 113.3 114 109.8C111.2 106.4 107.8 103.7 103.9 101.7C99.8 99.6 95.3 98.6 90.8 98.6C87.4 98.6 84 99.2 80.7 100.4C77.6 101.6 74.7 103.2 72.1 105.3C69.5 107.4 67.1 109.7 65.1 112.3C63 114.9 61.3 117.7 59.8 120.7L59.8 148.3C60.1 151.5 61.3 154.5 63.2 157C65.2 159.8 67.7 162.2 70.5 164.2C73.4 166.3 76.5 167.9 79.9 169.1C83 170.4 86.3 171 89.5 171.1C94.2 171.1 98.8 170 103 167.9Z" />
			<path id="Layer_1_" fill-rule="evenodd" class="shp0" d="M156.3 174C153.3 172.8 150.5 171 148.1 168.8C145.8 166.6 143.9 164 142.6 161.1C141.3 158.1 140.6 154.8 140.6 151.5C140.6 148.3 141.4 145.1 143 142.3C144.7 139.4 147 137 149.8 135.1C153 132.9 156.5 131.3 160.2 130.4C164.5 129.2 169 128.7 173.4 128.7C177.9 128.7 182.4 129.1 186.9 129.8C191.1 130.4 195.2 131.5 199.2 133L199.2 124.5C199.2 116.6 196.9 110.2 192.4 105.5C187.9 100.8 181.8 98.4 174.2 98.4C170 98.5 165.8 99.3 161.8 100.9C157.1 102.7 152.7 105.2 148.7 108.1L146.3 104.3C156.5 97.4 165.9 93.9 174.5 93.9C183.7 93.9 191 96.6 196.4 102.1C201.7 107.6 204.4 115.1 204.4 124.7L204.4 166.2C204.4 168.4 205.3 169.5 207.1 169.5L207.1 174.4C206.8 174.5 206.5 174.5 206.3 174.6L205.6 174.6C203.9 174.6 202.4 173.9 201.3 172.7C200.1 171.4 199.5 169.8 199.5 168.1L199.5 161.1C195.8 165.9 190.9 169.7 185.3 172.1C179.4 174.6 173 176 166.5 175.9C163 175.9 159.5 175.3 156.3 174ZM188.8 165.8C191.6 164.2 194.2 162.1 196.3 159.6C198.1 157.5 199.2 154.9 199.2 152.1L199.2 137.1C191.1 134 182.5 132.5 173.9 132.5C170 132.5 166.2 132.9 162.5 133.9C159.3 134.7 156.3 136 153.6 137.7C151.3 139.2 149.3 141.2 147.8 143.5C146.4 145.8 145.7 148.5 145.7 151.2C145.7 153.9 146.2 156.6 147.4 159.1C148.5 161.5 150 163.7 152 165.5C154 167.4 156.3 168.8 158.8 169.8C161.3 171 164.2 171.5 167.1 171.5C170.9 171.5 174.8 171 178.5 170C182.1 169.1 185.6 167.7 188.8 165.8Z" />
			<path id="Layer_2_" class="shp0" d="M258.3 166.4C257.9 166.7 257.5 167 257.1 167.2C256.3 167.7 255.3 168.1 254.4 168.5C253.1 169 251.8 169.4 250.5 169.7C249 170 247.5 170.2 245.9 170.2C243.4 170.2 240.9 169.4 238.9 167.9C236.8 166.3 235.6 163.8 235.6 161.2L235.6 99.7L254.3 99.7L254.3 95.1L235.6 95.1L235.6 67.8L230.4 67.8L230.4 95.2L219.1 95.2L219.1 99.7L230.4 99.7L230.4 162C230.2 165.8 231.8 169.4 234.7 171.7C237.6 174 241.3 175.2 245 175.1C247 175.1 249 174.9 250.9 174.5C252.5 174.2 254.1 173.7 255.6 173.1C256.7 172.7 257.8 172.2 258.9 171.6L260.4 170.8L258.3 166.4Z" />
			<path id="Layer_3_" class="shp0" d="M305.2 166.4C304.8 166.7 304.4 167 304 167.2C303.2 167.7 302.2 168.1 301.3 168.5C300 169 298.7 169.4 297.4 169.7C295.9 170 294.4 170.2 292.8 170.2C290.3 170.2 287.8 169.4 285.8 167.9C283.7 166.3 282.5 163.8 282.5 161.2L282.5 99.7L301.2 99.7L301.2 95.1L282.5 95.1L282.5 67.8L277.3 67.8L277.3 95.2L266 95.2L266 99.7L277.2 99.7L277.2 162C277 165.8 278.6 169.4 281.5 171.7C284.4 174 288.1 175.2 291.8 175.1C293.8 175.1 295.8 174.9 297.7 174.5C299.3 174.2 300.9 173.7 302.4 173.1C303.5 172.7 304.6 172.2 305.7 171.6L307.2 170.8L305.2 166.4Z" />
			<path id="Layer_4_" fill-rule="evenodd" class="shp0" d="M337 172.6C332.4 170.4 328.2 167.4 324.7 163.6C321.2 159.7 318.4 155.3 316.5 150.4C314.5 145.3 313.5 139.8 313.5 134.3C313.5 128.9 314.4 123.6 316.4 118.6C318.2 113.8 321 109.5 324.5 105.8C327.9 102.2 332 99.2 336.5 97.1C341.2 94.9 346.3 93.8 351.4 93.9C356.6 93.9 361.8 94.9 366.6 97.1C371.2 99.2 375.4 102.2 378.8 105.9C382.3 109.7 385.1 114.1 387 118.9C389 123.9 390 129.3 390 134.8L390 135.9C390.1 136.3 390 136.7 389.8 137L318.7 137C319.1 141.7 320.2 146.3 322.1 150.6C323.9 154.6 326.3 158.3 329.4 161.5C332.4 164.5 335.9 167 339.8 168.7C343.7 170.5 348 171.4 352.3 171.4C355.2 171.4 358 171 360.8 170.3C363.6 169.5 366.2 168.4 368.7 167C371.1 165.6 373.2 163.9 375.1 161.9C376.9 160 378.4 157.8 379.5 155.4L384.2 156.6C383 159.4 381.4 162 379.3 164.3C377.1 166.7 374.6 168.8 371.8 170.4C368.8 172.1 365.7 173.4 362.4 174.4C359 175.5 355.5 176 352.1 175.9C346.9 175.9 341.7 174.8 337 172.6ZM381.6 118.9C379.9 114.9 377.4 111.2 374.4 108.1C371.5 105.1 368 102.7 364.1 101C360.1 99.3 355.9 98.5 351.6 98.5C347.3 98.5 343.1 99.4 339.1 101.1C335.3 102.8 331.8 105.2 329 108.3C326 111.5 323.7 115.1 322 119.1C320.2 123.4 319.1 128 318.8 132.7L384.8 132.7L384.8 132.6C384.6 127.9 383.5 123.2 381.6 118.9Z" />
			<path id="Layer_5_" class="shp0" d="M442.8 95.1L440.7 95.1C439.9 95.1 438.9 95.2 437.9 95.3C432.6 96 427.5 98.2 423.3 101.6C418.6 105.2 414.9 109.9 412.3 115.3L412.3 95.2L407.3 95.2L407.3 174.4L412.5 174.4L412.5 124.5C414.3 117.6 418.3 111.4 423.8 106.9C429.3 102.6 436 100.2 442.9 100L442.8 95.1Z" />
			<path id="Layer_6_" class="shp1" d="M448.3 199.4C451.8 196.1 456.8 191.3 462.5 185.3C465.4 182.3 468.4 179 471.6 175.5C474.8 171.9 478.1 168.2 481.4 164.1C484.7 160 488 155.8 491.1 151.2C492.7 148.9 494.2 146.5 495.6 144C495.9 143.3 496.3 142.7 496.6 142C496.9 141.3 497.2 140.7 497.5 139.9L497.9 138.8C498.1 138.4 498.2 137.9 498.3 137.5C498.4 137 498.5 136.6 498.6 136.1L498.7 135.3L498.7 134.9L498.7 134.7L498.7 134.6C498.7 134.4 498.7 134.9 498.7 134.1C498.6 133.3 498.5 132.5 498.3 131.7C498.2 131.2 498.1 130.6 497.9 130.2L497.5 129.1C497.3 128.3 496.9 127.7 496.6 127C496.3 126.3 496 125.6 495.6 125C494.2 122.5 492.7 120.1 491.1 117.8C488 113.2 484.7 108.9 481.4 104.9C478.1 100.8 474.8 97.1 471.6 93.5C468.4 90 465.3 86.8 462.5 83.7C459.7 80.6 457 78 454.6 75.6C452.2 73.3 450.1 71.3 448.3 69.6C444.8 66.3 442.7 64.5 442.7 64.5C442.7 64.5 444.3 66.8 447.2 70.6C450.1 74.5 454.2 80 459.2 86.6L467.2 97.2C470.1 101 473 104.9 476 109.1C479 113.3 482 117.6 484.9 122C486.3 124.2 487.7 126.5 488.9 128.7C489.2 129.3 489.5 129.8 489.7 130.4C489.9 130.9 490.2 131.4 490.4 132L490.7 132.8C490.8 133 490.8 133.1 490.9 133.3C491.1 133.9 491.2 134.4 491.2 135C491.2 134.2 491.2 134.8 491.2 134.6L491.2 134.7L491.2 134.8L491.2 135C491.2 135.2 491.2 135.4 491.1 135.6C491 135.8 491 136 490.9 136.3L490.6 137.1C490.4 137.6 490.2 138.2 489.9 138.7C489.7 139.3 489.4 139.8 489.1 140.4C487.9 142.6 486.5 144.9 485.1 147.1C482.2 151.6 479.2 155.8 476.2 160C473.2 164.2 470.2 168.1 467.4 171.9L459.4 182.5C454.4 189.1 450.3 194.6 447.4 198.5C444.5 202.4 442.9 204.6 442.9 204.6C442.9 204.6 444.8 202.7 448.3 199.4L448.3 199.4Z" />
			<path id="Layer_7_" class="shp1" d="M554.5 198.5C551.6 194.6 547.5 189.1 542.5 182.5L534.5 171.9C531.6 168.1 528.7 164.1 525.7 160C522.7 155.8 519.7 151.5 516.8 147.1C515.4 144.9 514 142.6 512.8 140.4C512.5 139.8 512.2 139.3 512 138.7C511.8 138.2 511.5 137.7 511.3 137.1L511 136.3C510.9 136.1 510.9 135.8 510.8 135.6C510.7 135.2 510.6 134.9 510.6 134.5C510.6 135.2 510.6 134.6 510.6 134.8L510.6 134.7L510.6 134.4L510.7 133.9C510.7 133.7 510.8 133.5 510.9 133.3C511 133.1 511 133 511.1 132.8L511.4 132C511.6 131.5 511.8 130.9 512.1 130.4C512.3 129.8 512.6 129.3 512.9 128.7C514.1 126.5 515.5 124.2 516.9 122C519.8 117.5 522.8 113.3 525.8 109.1C528.8 104.9 531.8 101 534.6 97.2L542.6 86.6C547.6 80 551.7 74.5 554.6 70.6C557.5 66.7 559.1 64.5 559.1 64.5C559.1 64.5 557 66.3 553.5 69.6C551.7 71.2 549.6 73.2 547.2 75.6C544.8 78 542.2 80.7 539.3 83.7C536.4 86.7 533.4 90 530.2 93.5C527 97.1 523.7 100.8 520.4 104.9C517.1 109 513.8 113.2 510.7 117.8C509.1 120.1 507.6 122.5 506.2 125C505.9 125.7 505.5 126.3 505.2 127C504.9 127.7 504.6 128.3 504.3 129.1L503.9 130.2C503.8 130.6 503.6 131.2 503.5 131.7C503.4 132.2 503.3 132.6 503.2 133.1L503.1 133.6L503.1 133.9L503.1 134.1L503.1 134.6C503.2 135.6 503.3 136.6 503.6 137.6C503.7 138.1 503.9 138.5 504 138.9L504.4 140C504.6 140.8 505 141.4 505.3 142.1C505.6 142.8 505.9 143.5 506.3 144.1C507.7 146.6 509.2 149 510.8 151.3C513.9 155.9 517.2 160.1 520.5 164.2C523.8 168.3 527.1 172 530.3 175.6C533.5 179.1 536.5 182.4 539.4 185.4C545.1 191.4 550.1 196.2 553.6 199.5C557.1 202.8 559.2 204.6 559.2 204.6C559.2 204.6 557.5 202.3 554.5 198.5Z" />
			<path id="Layer_8_" fill-rule="evenodd" class="shp0" d="M578.6 63.7C576.6 63.7 574.6 63.3 572.7 62.6C570.9 61.9 569.3 60.9 568 59.5C566.7 58.2 565.6 56.6 564.9 54.9C563.4 51.2 563.4 47 564.9 43.3C565.6 41.6 566.7 40 568 38.7C569.4 37.4 571 36.3 572.7 35.6C574.6 34.9 576.6 34.5 578.6 34.5C580.6 34.5 582.7 34.9 584.5 35.6C586.3 36.3 587.9 37.3 589.2 38.7C590.5 40 591.6 41.6 592.3 43.3C593.8 47 593.8 51.2 592.3 54.9C590.8 58.4 588 61.2 584.4 62.6C582.7 63.4 580.7 63.7 578.6 63.7ZM578.6 62.4C580.4 62.4 582.2 62.1 583.9 61.4C585.5 60.8 587 59.9 588.2 58.7C589.4 57.5 590.4 56.1 591.1 54.5C591.8 52.8 592.2 50.9 592.1 49.1C592.1 47.3 591.8 45.5 591.1 43.8C590.5 42.2 589.5 40.8 588.3 39.6C587.1 38.4 585.6 37.4 584 36.8C582.3 36.1 580.5 35.8 578.6 35.8C576.8 35.8 574.9 36.1 573.2 36.8C570 38.1 567.5 40.6 566.2 43.8C565.5 45.5 565.2 47.2 565.2 49C565.2 50.8 565.5 52.6 566.2 54.3C566.8 55.9 567.8 57.3 569 58.5C570.2 59.7 571.6 60.7 573.2 61.3C575 62.1 576.8 62.4 578.6 62.4ZM580.2 40C581 40 581.7 40.2 582.4 40.5C583.1 40.8 583.6 41.3 584.1 41.8C584.6 42.4 584.9 43 585.2 43.7C585.5 44.4 585.6 45.1 585.6 45.8C585.6 47.1 585.2 48.3 584.5 49.3C583.8 50.3 582.7 51 581.5 51.2L586 58.3L583.7 58.3L579.4 51.5L574.6 51.5L574.6 58.3L572.5 58.3L572.5 40L580.2 40ZM580.2 49.6C581.2 49.7 582.1 49.3 582.7 48.5C583.3 47.7 583.6 46.7 583.5 45.7C583.5 44.7 583.2 43.7 582.5 42.9C581.9 42.2 580.9 41.8 580 41.8L574.5 41.8L574.5 49.5L580.2 49.6Z" />
		</g>
	</g>
	<g id="Commissioning">
		<g id="Layer">
			<path id="Layer" class="shp0" d="M161.2 262.3C161.2 258.4 161.9 254.5 163.3 250.7C164.7 246.8 166.7 243.4 169.3 240.4C171.9 237.4 175.1 234.9 178.9 233C182.7 231.1 187 230.1 191.9 230.1C197.7 230.1 202.6 231.4 206.7 234.1C210.8 236.7 213.8 240.1 215.8 244.3L212 246.5C210.8 244.3 209.5 242.4 207.9 240.8C206.4 239.3 204.7 238.1 202.9 237.1C201.1 236.2 199.2 235.5 197.3 235C195.4 234.6 193.4 234.4 191.6 234.4C187.5 234.4 183.8 235.2 180.7 236.9C177.5 238.6 174.9 240.7 172.7 243.4C170.5 246.1 168.9 249.1 167.7 252.5C166.6 255.9 166 259.3 166 262.7C166 266.5 166.7 270.2 168 273.6C169.3 277.1 171.2 280.1 173.5 282.8C175.8 285.4 178.5 287.6 181.7 289.1C184.9 290.7 188.3 291.5 191.9 291.5C193.8 291.5 195.8 291.3 197.9 290.8C200 290.3 201.9 289.6 203.8 288.5C205.7 287.5 207.4 286.1 209.1 284.5C210.7 282.9 212.1 281 213.2 278.8L217.2 280.7C216.1 283.1 214.6 285.3 212.7 287.2C210.8 289.1 208.7 290.7 206.4 291.9C204.1 293.2 201.6 294.1 199.1 294.8C196.5 295.4 194 295.8 191.5 295.8C187.1 295.8 183 294.8 179.3 292.9C175.6 291 172.4 288.4 169.8 285.3C167.1 282.2 165 278.6 163.6 274.6C162 270.5 161.2 266.5 161.2 262.3Z" />
			<path id="Layer" fill-rule="evenodd" class="shp0" d="M247.1 296.1C243.8 296.1 240.7 295.4 237.9 294.1C235.1 292.8 232.6 291 230.6 288.8C228.5 286.6 226.9 283.9 225.8 281C224.6 278 224.1 274.9 224.1 271.6C224.1 268.3 224.7 265.1 225.9 262.1C227.1 259.1 228.7 256.5 230.8 254.3C232.9 252.1 235.3 250.3 238.1 249C240.9 247.7 244 247 247.3 247C250.6 247 253.6 247.7 256.4 249C259.2 250.3 261.6 252.1 263.7 254.3C265.8 256.5 267.4 259.2 268.6 262.1C269.8 265.1 270.4 268.2 270.4 271.6C270.4 274.9 269.8 278 268.6 281C267.4 284 265.8 286.6 263.7 288.8C261.6 291 259.2 292.8 256.4 294.1C253.4 295.4 250.3 296.1 247.1 296.1ZM228.5 271.7C228.5 274.5 229 277.1 230 279.6C231 282.1 232.3 284.2 234 286C235.7 287.8 237.6 289.3 239.9 290.3C242.1 291.4 244.5 291.9 247.1 291.9C249.7 291.9 252.1 291.4 254.3 290.3C256.5 289.2 258.5 287.8 260.2 285.9C261.9 284 263.2 281.8 264.2 279.4C265.2 276.9 265.7 274.3 265.7 271.4C265.7 268.6 265.2 266 264.2 263.5C263.2 261 261.9 258.9 260.2 257C258.5 255.1 256.5 253.7 254.3 252.6C252.1 251.5 249.7 251 247.1 251C244.5 251 242.1 251.5 239.9 252.6C237.7 253.7 235.7 255.2 234 257.1C232.3 259 231 261.2 230 263.7C229 266.3 228.5 268.9 228.5 271.7Z" />
			<path id="Layer" class="shp0" d="M350.8 295.1L346.2 295.1L346.2 268.7C346.2 262.7 345.3 258.3 343.4 255.4C341.5 252.5 338.7 251.1 334.9 251.1C333 251.1 331.1 251.5 329.3 252.2C327.5 252.9 325.9 253.9 324.5 255.3C323 256.6 321.8 258.2 320.7 259.9C319.6 261.7 318.8 263.7 318.2 265.9L318.2 295.2L313.6 295.2L313.6 268.8C313.6 262.7 312.7 258.3 310.9 255.4C309.1 252.6 306.3 251.2 302.4 251.2C300.5 251.2 298.6 251.5 296.9 252.2C295.2 252.9 293.6 253.9 292.1 255.2C290.6 256.5 289.4 258.1 288.2 259.8C287.1 261.6 286.2 263.6 285.6 265.8L285.6 295.1L281 295.1L281 247.7L285.3 247.7L285.3 259C287.2 255.2 289.8 252.2 293 250.1C296.2 248 299.7 246.9 303.5 246.9C307.5 246.9 310.8 248.1 313.3 250.5C315.8 252.9 317.3 256 317.8 259.8C322.3 251.2 328.5 246.9 336.4 246.9C341.6 246.9 345.3 248.7 347.5 252.4C349.7 256.1 350.8 261.2 350.8 267.8L350.8 295.1Z" />
			<path id="Layer" class="shp0" d="M434.2 295.1L429.6 295.1L429.6 268.7C429.6 262.7 428.7 258.3 426.8 255.4C424.9 252.5 422.1 251.1 418.3 251.1C416.4 251.1 414.5 251.5 412.7 252.2C410.9 252.9 409.3 253.9 407.9 255.3C406.4 256.6 405.2 258.2 404.1 259.9C403 261.7 402.2 263.7 401.6 265.9L401.6 295.2L397 295.2L397 268.8C397 262.7 396.1 258.3 394.3 255.4C392.5 252.6 389.7 251.2 385.8 251.2C383.9 251.2 382 251.5 380.3 252.2C378.6 252.9 377 253.9 375.5 255.2C374 256.5 372.8 258.1 371.6 259.8C370.5 261.6 369.6 263.6 369 265.8L369 295.1L364.4 295.1L364.4 247.7L368.7 247.7L368.7 259C370.6 255.2 373.2 252.2 376.4 250.1C379.6 248 383.1 246.9 386.9 246.9C390.9 246.9 394.2 248.1 396.7 250.5C399.2 252.9 400.7 256 401.2 259.8C405.7 251.2 411.9 246.9 419.8 246.9C425 246.9 428.7 248.7 430.9 252.4C433.1 256.1 434.2 261.2 434.2 267.8L434.2 295.1Z" />
			<path id="Layer" class="shp0" d="M447.9 237L447.9 228.6L452.5 228.6L452.5 237L447.9 237ZM447.9 295.1L447.9 247.7L452.5 247.7L452.5 295.1L447.9 295.1Z" />
			<path id="Layer" class="shp0" d="M481.8 296.1C478.2 296.1 474.7 295.5 471.3 294.3C468 293.1 465 291.3 462.6 288.8L464.9 285.7C467.5 288 470.1 289.7 472.8 290.8C475.5 291.9 478.5 292.4 481.8 292.4C485.9 292.4 489.3 291.5 491.8 289.8C494.3 288.1 495.6 285.7 495.6 282.6C495.6 281.1 495.3 279.9 494.6 278.9C494 277.9 493 277 491.7 276.3C490.4 275.6 488.8 275 487 274.4C485.1 273.9 482.9 273.3 480.4 272.7C477.7 272.1 475.4 271.5 473.4 270.9C471.4 270.3 469.8 269.6 468.5 268.7C467.2 267.9 466.3 266.8 465.6 265.6C465 264.4 464.6 262.8 464.6 261C464.6 258.6 465.1 256.6 466 254.8C466.9 253 468.2 251.6 469.8 250.4C471.4 249.2 473.3 248.4 475.4 247.8C477.5 247.2 479.7 246.9 482.1 246.9C485.8 246.9 489.1 247.5 491.9 248.8C494.8 250 497 251.6 498.6 253.6L496 256.1C494.4 254.3 492.4 252.9 489.8 252C487.3 251.1 484.6 250.6 481.7 250.6C479.9 250.6 478.3 250.8 476.7 251.1C475.2 251.5 473.8 252 472.6 252.8C471.4 253.6 470.5 254.6 469.9 255.9C469.2 257.1 468.9 258.6 468.9 260.3C468.9 261.7 469.1 262.8 469.6 263.7C470.1 264.6 470.8 265.3 471.8 265.9C472.8 266.5 474.1 267 475.7 267.5C477.3 268 479.2 268.5 481.4 269C484.4 269.7 487 270.4 489.3 271.1C491.6 271.8 493.5 272.6 495.1 273.6C496.6 274.6 497.8 275.7 498.7 277.1C499.5 278.4 499.9 280.1 499.9 282.2C499.9 286.5 498.2 289.8 494.9 292.4C491.8 294.8 487.3 296.1 481.8 296.1Z" />
			<path id="Layer" class="shp0" d="M525.6 296.1C522 296.1 518.5 295.5 515.1 294.3C511.8 293.1 508.8 291.3 506.4 288.8L508.7 285.7C511.3 288 513.9 289.7 516.6 290.8C519.3 291.9 522.3 292.4 525.6 292.4C529.7 292.4 533.1 291.5 535.6 289.8C538.1 288.1 539.4 285.7 539.4 282.6C539.4 281.1 539.1 279.9 538.4 278.9C537.8 277.9 536.8 277 535.5 276.3C534.2 275.6 532.6 275 530.8 274.4C528.9 273.9 526.7 273.3 524.2 272.7C521.5 272.1 519.2 271.5 517.2 270.9C515.2 270.3 513.6 269.6 512.3 268.7C511 267.9 510.1 266.8 509.4 265.6C508.8 264.4 508.4 262.8 508.4 261C508.4 258.6 508.9 256.6 509.8 254.8C510.7 253 512 251.6 513.6 250.4C515.2 249.2 517.1 248.4 519.2 247.8C521.3 247.2 523.5 246.9 525.9 246.9C529.6 246.9 532.9 247.5 535.7 248.8C538.6 250 540.8 251.6 542.4 253.6L539.8 256.1C538.2 254.3 536.2 252.9 533.6 252C531.1 251.1 528.4 250.6 525.5 250.6C523.7 250.6 522.1 250.8 520.5 251.1C519 251.5 517.6 252 516.4 252.8C515.2 253.6 514.3 254.6 513.7 255.9C513 257.1 512.7 258.6 512.7 260.3C512.7 261.7 512.9 262.8 513.4 263.7C513.9 264.6 514.6 265.3 515.6 265.9C516.6 266.5 517.9 267 519.5 267.5C521.1 268 523 268.5 525.2 269C528.2 269.7 530.8 270.4 533.1 271.1C535.4 271.8 537.3 272.6 538.9 273.6C540.4 274.6 541.6 275.7 542.5 277.1C543.3 278.4 543.7 280.1 543.7 282.2C543.7 286.5 542 289.8 538.7 292.4C535.6 294.8 531.2 296.1 525.6 296.1Z" />
			<path id="Layer" class="shp0" d="M554.4 237L554.4 228.6L559 228.6L559 237L554.4 237ZM554.4 295.1L554.4 247.7L559 247.7L559 295.1L554.4 295.1Z" />
			<path id="Layer" fill-rule="evenodd" class="shp0" d="M593.2 296.1C589.9 296.1 586.8 295.4 584 294.1C581.2 292.8 578.7 291 576.7 288.8C574.6 286.6 573 283.9 571.9 281C570.7 278 570.2 274.9 570.2 271.6C570.2 268.3 570.8 265.1 572 262.1C573.2 259.1 574.8 256.5 576.9 254.3C579 252.1 581.4 250.3 584.2 249C587 247.7 590.1 247 593.4 247C596.7 247 599.7 247.7 602.5 249C605.3 250.3 607.7 252.1 609.8 254.3C611.9 256.5 613.5 259.2 614.7 262.1C615.9 265.1 616.5 268.2 616.5 271.6C616.5 274.9 615.9 278 614.7 281C613.5 284 611.9 286.6 609.8 288.8C607.7 291 605.3 292.8 602.5 294.1C599.5 295.4 596.5 296.1 593.2 296.1ZM574.6 271.7C574.6 274.5 575.1 277.1 576.1 279.6C577.1 282.1 578.4 284.2 580.1 286C581.8 287.8 583.7 289.3 586 290.3C588.2 291.4 590.6 291.9 593.2 291.9C595.8 291.9 598.2 291.4 600.4 290.3C602.6 289.2 604.6 287.8 606.3 285.9C608 284 609.3 281.8 610.3 279.4C611.3 276.9 611.8 274.3 611.8 271.4C611.8 268.6 611.3 266 610.3 263.5C609.3 261 608 258.9 606.3 257C604.6 255.1 602.6 253.7 600.4 252.6C598.2 251.5 595.8 251 593.2 251C590.6 251 588.2 251.5 586 252.6C583.8 253.7 581.8 255.2 580.1 257.1C578.4 259 577.1 261.2 576.1 263.7C575.1 266.3 574.6 268.9 574.6 271.7Z" />
			<path id="Layer" class="shp0" d="M666 295.1L661.4 295.1L661.4 268.7C661.4 262.6 660.5 258.1 658.8 255.3C657.1 252.5 654.3 251.1 650.6 251.1C648.6 251.1 646.6 251.5 644.6 252.2C642.6 252.9 640.8 254 639.1 255.3C637.4 256.6 635.9 258.2 634.6 260C633.3 261.8 632.4 263.7 631.8 265.8L631.8 295.1L627.2 295.1L627.2 247.7L631.5 247.7L631.5 259C632.5 257.2 633.7 255.5 635.1 254C636.5 252.5 638.1 251.2 639.9 250.2C641.7 249.1 643.6 248.3 645.6 247.7C647.6 247.1 649.7 246.8 651.8 246.8C657 246.8 660.6 248.6 662.7 252.2C664.8 255.8 665.9 261 665.9 267.7L665.9 295.1L666 295.1Z" />
			<path id="Layer" class="shp0" d="M679.7 237L679.7 228.6L684.3 228.6L684.3 237L679.7 237ZM679.7 295.1L679.7 247.7L684.3 247.7L684.3 295.1L679.7 295.1Z" />
			<path id="Layer" class="shp0" d="M737.3 295.1L732.7 295.1L732.7 268.7C732.7 262.6 731.8 258.1 730.1 255.3C728.4 252.5 725.6 251.1 721.9 251.1C719.9 251.1 717.9 251.5 715.9 252.2C713.9 252.9 712.1 254 710.4 255.3C708.7 256.6 707.2 258.2 705.9 260C704.6 261.8 703.7 263.7 703.1 265.8L703.1 295.1L698.5 295.1L698.5 247.7L702.8 247.7L702.8 259C703.8 257.2 705 255.5 706.4 254C707.8 252.5 709.4 251.2 711.2 250.2C713 249.1 714.9 248.3 716.9 247.7C718.9 247.1 721 246.8 723.1 246.8C728.3 246.8 731.9 248.6 734 252.2C736.1 255.8 737.2 261 737.2 267.7L737.2 295.1L737.3 295.1Z" />
			<path id="Layer" fill-rule="evenodd" class="shp0" d="M770.2 295.9C766.9 295.9 763.9 295.2 761.2 293.8C758.5 292.4 756.1 290.6 754.1 288.3C752.1 286 750.6 283.4 749.5 280.5C748.4 277.6 747.8 274.6 747.8 271.5C747.8 268.3 748.3 265.2 749.4 262.2C750.5 259.2 752 256.6 753.9 254.3C755.8 252 758.2 250.2 760.9 248.9C763.6 247.6 766.6 246.9 769.9 246.9C774 246.9 777.6 248 780.7 250.1C783.8 252.3 786.4 254.9 788.5 258L788.5 247.7L792.7 247.7L792.7 296C792.7 299.2 792.1 302 790.9 304.5C789.7 306.9 788.1 308.9 786 310.6C784 312.2 781.6 313.4 778.9 314.2C776.2 315 773.4 315.4 770.4 315.4C767.7 315.4 765.2 315.1 763 314.6C760.8 314.1 758.9 313.4 757.2 312.4C755.5 311.5 754 310.3 752.7 308.9C751.4 307.5 750.3 306 749.3 304.4L752.4 302.3C754.3 305.5 756.8 307.9 760.1 309.4C763.3 310.9 766.8 311.6 770.4 311.6C772.8 311.6 775.1 311.3 777.3 310.6C779.5 309.9 781.3 308.9 783 307.6C784.6 306.3 785.9 304.7 786.8 302.7C787.7 300.8 788.2 298.5 788.2 295.9L788.2 285.5C786.3 288.6 783.7 291.1 780.5 292.9C777.1 294.9 773.8 295.9 770.2 295.9ZM771.3 291.9C773.3 291.9 775.3 291.5 777.2 290.8C779.1 290 780.8 289.1 782.4 287.8C783.9 286.6 785.2 285.2 786.2 283.7C787.2 282.2 787.8 280.7 788.1 279.1L788.1 263.5C787.4 261.7 786.4 260 785.2 258.4C784 256.9 782.6 255.5 781.1 254.4C779.6 253.3 777.9 252.4 776.1 251.8C774.3 251.2 772.5 250.8 770.7 250.8C767.8 250.8 765.3 251.4 763 252.6C760.8 253.8 758.9 255.4 757.3 257.3C755.8 259.2 754.6 261.4 753.7 263.9C752.9 266.4 752.5 268.8 752.5 271.3C752.5 274 753 276.6 754 279C755 281.4 756.3 283.6 758 285.5C759.7 287.4 761.7 288.9 764 290C766.3 291.4 768.7 291.9 771.3 291.9Z" />
		</g>
	</g>
</svg>